<?xml version="1.0" standalone="no"?>
<!DOCTYPE svg PUBLIC "-//W3C//DTD SVG 20010904//EN"
 "http://www.w3.org/TR/2001/REC-SVG-20010904/DTD/svg10.dtd">
<svg version="1.0" xmlns="http://www.w3.org/2000/svg"
 width="600.000000pt" height="326.000000pt" viewBox="0 0 600.000000 326.000000"
 preserveAspectRatio="xMidYMid meet">
<metadata>
Created by potrace 1.16, written by Peter Selinger 2001-2019
</metadata>
<g transform="translate(0.000000,326.000000) scale(0.100000,-0.100000)"
fill="#000000" stroke="none">
<path d="M2545 3245 c-813 -78 -1481 -296 -1956 -640 -293 -212 -492 -473
-566 -745 -28 -103 -25 -358 5 -469 64 -235 231 -472 468 -664 403 -329 1008
-566 1709 -673 423 -64 1001 -72 1435 -19 595 73 1162 248 1553 479 198 117
292 189 428 325 166 167 222 241 282 377 77 171 92 243 92 424 -1 149 -2 159
-34 255 -80 238 -199 412 -402 587 -468 403 -1163 662 -2019 754 -203 21 -809
27 -995 9z m725 -115 c694 -38 1273 -182 1755 -434 373 -195 618 -420 750
-691 68 -139 80 -194 80 -375 0 -117 -5 -171 -18 -220 -48 -175 -143 -325
-313 -497 -255 -256 -750 -508 -1244 -633 -904 -229 -1891 -210 -2743 51 -392
121 -702 281 -989 512 -186 149 -343 386 -395 594 -24 95 -23 305 1 392 77
282 266 516 590 733 124 82 394 222 537 278 586 226 1289 328 1989 290z"/>
<path d="M2686 3022 c-3 -5 -12 -91 -21 -193 -31 -370 -44 -427 -129 -559 -50
-77 -118 -133 -183 -149 -57 -15 -185 -13 -261 3 -92 20 -208 80 -264 138 -65
67 -91 139 -86 239 4 65 11 89 46 160 23 46 76 125 116 174 46 55 69 91 61 93
-16 4 -325 -84 -465 -133 -595 -207 -1013 -507 -1179 -847 -54 -110 -71 -182
-71 -299 0 -246 148 -520 403 -744 161 -143 424 -291 707 -398 132 -50 250
-90 250 -83 0 1 -27 31 -60 66 -122 132 -217 286 -256 415 -12 39 -18 93 -19
155 0 87 2 100 30 150 49 89 120 123 250 121 154 -2 322 -83 530 -256 l80 -66
20 27 c11 15 34 46 50 68 40 54 110 106 142 106 63 0 108 -24 179 -94 94 -94
231 -312 369 -586 70 -140 53 -147 172 72 227 417 316 540 431 591 81 35 150
6 225 -94 23 -31 47 -64 52 -74 9 -15 21 -8 100 56 226 182 392 256 561 247
96 -5 155 -34 196 -96 116 -174 20 -477 -237 -749 -28 -29 -49 -55 -47 -58 5
-5 250 81 367 130 296 122 583 317 731 496 179 216 258 403 258 609 0 88 -5
118 -28 185 -101 296 -378 561 -812 778 -130 65 -299 135 -437 182 -119 40
-418 125 -440 125 -15 0 -7 -13 36 -62 70 -82 111 -143 150 -226 29 -61 32
-76 32 -162 0 -80 -4 -102 -24 -140 -51 -98 -176 -183 -317 -216 -98 -23 -254
-16 -310 14 -92 48 -197 205 -228 342 -8 36 -22 152 -32 259 -17 201 -32 286
-49 285 -5 0 -28 -37 -51 -81 -22 -45 -46 -88 -53 -96 -9 -12 -44 -15 -184
-13 l-172 1 -35 70 c-56 114 -79 142 -94 117z"/>
</g>
</svg>
